<?xml version="1.0" encoding="UTF-8" standalone="no"?>
<svg
   xmlns:dc="http://purl.org/dc/elements/1.1/"
   xmlns:cc="http://creativecommons.org/ns#"
   xmlns:rdf="http://www.w3.org/1999/02/22-rdf-syntax-ns#"
   xmlns:svg="http://www.w3.org/2000/svg"
   xmlns="http://www.w3.org/2000/svg"
   xmlns:sodipodi="http://sodipodi.sourceforge.net/DTD/sodipodi-0.dtd"
   xmlns:inkscape="http://www.inkscape.org/namespaces/inkscape"
   viewBox="0 -158 1024 1000"
   id="svg2"
   sodipodi:version="0.32"
   inkscape:version="0.48.3.1 r9886"
   width="525"
   height="24"
   sodipodi:docname="separator.svg"
   inkscape:output_extension="org.inkscape.output.svg.inkscape"
   version="1.0"
   inkscape:export-filename="ornamental_divider-englische_linie.png"
   inkscape:export-xdpi="90"
   inkscape:export-ydpi="90">
  <metadata
     id="metadata11">
    <rdf:RDF>
      <cc:Work
         rdf:about="">
        <dc:format>image/svg+xml</dc:format>
        <dc:type
           rdf:resource="http://purl.org/dc/dcmitype/StillImage" />
        <cc:license
           rdf:resource="http://creativecommons.org/licenses/publicdomain/" />
        <dc:creator>
          <cc:Agent>
            <dc:title>IceHand</dc:title>
          </cc:Agent>
        </dc:creator>
        <dc:title></dc:title>
        <dc:subject>
          <rdf:Bag>
            <rdf:li>divider</rdf:li>
            <rdf:li>ornament</rdf:li>
            <rdf:li>englische linie</rdf:li>
          </rdf:Bag>
        </dc:subject>
        <dc:date>2009-03-21</dc:date>
      </cc:Work>
      <cc:License
         rdf:about="http://creativecommons.org/licenses/publicdomain/">
        <cc:permits
           rdf:resource="http://creativecommons.org/ns#Reproduction" />
        <cc:permits
           rdf:resource="http://creativecommons.org/ns#Distribution" />
        <cc:permits
           rdf:resource="http://creativecommons.org/ns#DerivativeWorks" />
      </cc:License>
    </rdf:RDF>
  </metadata>
  <defs
     id="defs9">
    <inkscape:perspective
       sodipodi:type="inkscape:persp3d"
       inkscape:vp_x="0 : 526.18109 : 1"
       inkscape:vp_y="0 : 1000 : 0"
       inkscape:vp_z="744.09448 : 526.18109 : 1"
       inkscape:persp3d-origin="372.04724 : 350.78739 : 1"
       id="perspective13" />
  </defs>
  <sodipodi:namedview
     inkscape:window-height="804"
     inkscape:window-width="1101"
     inkscape:pageshadow="2"
     inkscape:pageopacity="0.0"
     guidetolerance="10.0"
     gridtolerance="10.0"
     objecttolerance="10.0"
     borderopacity="1.0"
     bordercolor="#666666"
     pagecolor="#ffffff"
     id="base"
     showgrid="false"
     inkscape:zoom="1.3447619"
     inkscape:cx="240.19122"
     inkscape:cy="12"
     inkscape:window-x="0"
     inkscape:window-y="25"
     inkscape:current-layer="svg2"
     inkscape:window-maximized="0" />
  <g
     id="g2986"
     transform="matrix(0.95,0,0,0.95,25.599952,17.098118)">
    <g
       fill="#A6C14B"
       transform="translate(1780.1542,5.0000001e-6)"
       id="g2388">
      <path
         id="path6"
         d="m -1723.3151,240.40198 c 29.9202,-79.73892 76.139,-153.60611 136.3513,-213.9766 46.1798,-46.290414 100.8487,-84.539786 161.4106,-109.510251 50.3991,-20.860799 104.8404,-32.172169 159.4292,-32.106179 54.5888,-0.066 109.03,11.24538 159.4291,32.106178 60.5619,24.970469 115.23082,63.219841 161.41054,109.510249 60.21237,60.370488 106.43114,134.237673 136.35126,213.976593 9.73883,56.59128 14.55276,114.24763 11.02648,171.64507 -1.68692,27.66698 -5.30504,55.22507 -11.02648,82.34995 -11.25191,45.31233 -31.22657,88.48005 -58.87026,126.12936 -31.04654,42.50271 -71.41484,77.79433 -116.45972,104.82876 -54.44782,32.71319 -115.42402,53.83902 -177.86182,64.83198 -72.5117,12.68299 -147.3651,11.99264 -219.6094,-2.16262 -61.3109,-12.08178 -120.9898,-34.09558 -173.9895,-67.43177 -43.8386,-27.53835 -82.8793,-63.12839 -112.6757,-105.57753 -25.986,-36.87829 -44.8128,-78.75048 -55.3637,-122.60252 -10.9583,-48.75502 -17.2782,-98.79455 -15.4924,-148.82521 1.2114,-34.86316 6.4231,-69.61201 15.9405,-103.18546 z m 761.98496,101.59799 c -203.19596,0 -406.39186,0 -609.58786,0 -0.041,43.61016 7.159,87.54256 23.8966,127.94783 15.0905,36.70744 38.161,70.13553 67.3649,97.03404 34.4165,31.87048 76.8843,54.55343 121.9428,67.23644 65.2151,18.37082 136.0196,16.64147 200.1507,-5.3019 42.6625,-14.58395 82.325,-38.50952 114.0212,-70.69197 27.771,-28.03924 49.12266,-62.27099 62.62002,-99.32688 13.69849,-37.32615 19.61521,-77.22436 19.59164,-116.89756 z"
         inkscape:connector-curvature="0" />
      <path
         id="path2380"
         d="m -12009.954,291.20096 c 3242.6695,-135.464 6485.3391,-270.928001 9728.0087,-406.392 91.0849,-0.31806 183.8449,20.61973 261.2581,69.902153 75.3147,47.1770558 132.9389,119.671062 167.54,201.076537 11.8874,28.10635 22.0305,57.12703 28.6711,86.91585 9.7541,83.48265 11.3283,168.31344 -0.278,251.69356 -32.2193,95.14364 -96.9738,178.74145 -180.1597,234.86648 -71.4097,48.27681 -158.407,74.18348 -244.7107,69.25556 -3253.4432,-118.30705 -6506.8864,-236.61409 -9760.3295,-354.92114 -43.686,-0.47093 -87.996,-6.6583 -128.57,-23.44462 -18.554,-8.2637 -38.439,-19.48613 -46.653,-39.13637 -5.161,-14.32418 -2.203,-30.67662 4.383,-44.04529 11.753,-22.19363 36.762,-32.57199 60.023,-37.92252 36.306,-8.11574 73.826,-7.71294 110.817,-7.8482 z m 9982.0038,50.79901 c -2099.6921,0 -4199.3841,0 -6299.0762,0 -0.6224,25.25597 13.3076,49.07865 33.4697,63.64825 31.5096,23.12516 70.9249,32.01208 109.1309,36.18773 24.3182,2.25848 48.7743,1.82364 73.1635,2.74819 1943.1057,50.47028 3886.2113,100.94057 5829.317,151.41086 59.7559,0.29844 121.0882,-16.61425 167.7452,-55.017 44.171,-35.63484 72.1508,-88.76528 81.5867,-144.30955 3.195,-18.03434 4.6636,-36.35866 4.6632,-54.66848 z"
         inkscape:connector-curvature="0" />
      <path
         id="path2386"
         d="m 9473.6455,291.20096 c -3242.67,-135.464 -6485.34,-270.928001 -9728.01006,-406.392 -91.08488,-0.31806 -183.84486,20.619732 -261.25797,69.902153 -75.31468,47.1770658 -132.93886,119.671077 -167.53996,201.076537 -11.88736,28.10636 -22.03051,57.12703 -28.67101,86.91585 -9.75392,83.48267 -11.32794,168.3134 0.27795,251.69356 32.21934,95.14362 96.97376,178.74144 180.15968,234.86648 71.40964,48.27682 158.40694,74.18348 244.71065,69.25556 C 2966.7584,680.21205 6220.2019,561.90501 9473.6455,443.59796 c 43.6863,-0.47093 87.9959,-6.65829 128.5701,-23.44462 18.5537,-8.2637 38.4384,-19.48612 46.6527,-39.13637 5.1617,-14.32417 2.2033,-30.67661 -4.3826,-44.04529 -11.7529,-22.19364 -36.7618,-32.57199 -60.0231,-37.92252 -36.3063,-8.11573 -73.8256,-7.71293 -110.8171,-7.8482 z m -9982.00506,50.79901 c 2099.69246,0 4199.38486,0 6299.07736,0 0.6224,25.25598 -13.3076,49.07866 -33.4698,63.64825 -31.5096,23.1252 -70.925,32.01209 -109.1311,36.18773 -24.3183,2.25848 -48.7744,1.82364 -73.1637,2.74819 -1943.1059,50.47028 -3886.2118,100.94057 -5829.31776,151.41086 -59.75584,0.29844 -121.08811,-16.61426 -167.74513,-55.017 -44.17102,-35.63484 -72.15073,-88.76529 -81.58668,-144.30955 -3.19494,-18.03434 -4.66361,-36.35866 -4.66319,-54.66848 z"
         inkscape:connector-curvature="0" />
    </g>
  </g>
  <g
     inkscape:groupmode="layer"
     id="layer1"
     inkscape:label="Layer1" />
</svg>
